<svg width="65" height="64" viewBox="0 0 65 64" fill="none" xmlns="http://www.w3.org/2000/svg">
<path d="M39.5922 49.7813C39.4284 49.7824 39.2689 49.7293 39.1386 49.6302C39.0083 49.5312 38.9147 49.3918 38.8724 49.2339C38.8301 49.076 38.8415 48.9086 38.9048 48.7578C38.9682 48.6071 39.0798 48.4816 39.2223 48.401L61.9997 35.2702L31.5806 17.7477C31.4196 17.6456 31.3043 17.4853 31.2589 17.3004C31.2135 17.1155 31.2415 16.9203 31.337 16.7554C31.4325 16.5906 31.5881 16.469 31.7713 16.4159C31.9546 16.3629 32.1513 16.3826 32.3203 16.4708L63.8491 34.6281C63.9629 34.6925 64.0576 34.7858 64.1235 34.8986C64.1894 35.0114 64.2241 35.1397 64.2241 35.2702C64.2241 35.4008 64.1894 35.529 64.1235 35.6419C64.0576 35.7547 63.9629 35.848 63.8491 35.9124L39.9621 49.6706C39.8508 49.7395 39.7232 49.7777 39.5922 49.7813V49.7813Z" fill="white"/>
<path d="M37.9721 61.0071H30.8926V60.269C30.9315 58.7387 30.663 57.2162 30.103 55.7911C29.5429 54.3659 28.7026 53.0671 27.6316 51.971C26.5606 50.8749 25.2806 50.0039 23.8669 49.4091C22.4532 48.8144 20.9345 48.508 19.4003 48.508C17.8661 48.508 16.3474 48.8144 14.9337 49.4091C13.5201 50.0039 12.24 50.8749 11.169 51.971C10.098 53.0671 9.25773 54.3659 8.69768 55.7911C8.13764 57.2162 7.86917 58.7387 7.90808 60.269V61.0071H0.739764C0.543567 61.0071 0.355404 60.9293 0.216671 60.7909C0.0779387 60.6525 0 60.4648 0 60.269C0 60.0733 0.0779387 59.8855 0.216671 59.7471C0.355404 59.6087 0.543567 59.5309 0.739764 59.5309H6.45075C6.6442 56.2359 8.0924 53.1393 10.499 50.8747C12.9056 48.61 16.0886 47.3486 19.3966 47.3486C22.7047 47.3486 25.8877 48.61 28.2943 50.8747C30.7009 53.1393 32.1491 56.2359 32.3425 59.5309H37.9647C38.1609 59.5309 38.3491 59.6087 38.4878 59.7471C38.6265 59.8855 38.7045 60.0733 38.7045 60.269C38.7045 60.4648 38.6265 60.6525 38.4878 60.7909C38.3491 60.9293 38.1609 61.0071 37.9647 61.0071H37.9721Z" fill="white"/>
<path d="M36.2855 56.1214C36.1731 56.122 36.0621 56.0971 35.9608 56.0485C35.8596 55.9999 35.7707 55.9289 35.7011 55.8409C35.5827 55.6859 23.5024 40.1489 20.203 15.6218C20.1765 15.426 20.2291 15.2278 20.3491 15.0707C20.4691 14.9136 20.6467 14.8105 20.8429 14.784C21.0391 14.7576 21.2378 14.81 21.3952 14.9298C21.5527 15.0495 21.656 15.2267 21.6825 15.4225C24.9227 39.5289 36.7589 54.7707 36.8773 54.9257C36.9633 55.0343 37.017 55.1647 37.0322 55.3023C37.0474 55.4398 37.0236 55.5789 36.9634 55.7035C36.9033 55.8282 36.8092 55.9335 36.6919 56.0074C36.5747 56.0813 36.439 56.1208 36.3003 56.1214H36.2855Z" fill="white"/>
<path d="M1.91606 56.1214C1.77738 56.1208 1.64166 56.0813 1.52441 56.0074C1.40716 55.9335 1.31309 55.8282 1.25293 55.7035C1.19276 55.5788 1.16893 55.4398 1.18416 55.3023C1.19939 55.1647 1.25305 55.0342 1.33903 54.9257C1.45739 54.7707 13.2936 39.5289 16.5338 15.4225C16.5603 15.2267 16.6636 15.0495 16.8211 14.9298C16.9785 14.81 17.1772 14.7576 17.3734 14.784C17.5696 14.8105 17.7473 14.9136 17.8673 15.0707C17.9873 15.2278 18.0398 15.426 18.0133 15.6218C14.714 40.1489 2.63363 55.6859 2.51526 55.8409C2.44407 55.9309 2.35285 56.0031 2.24885 56.0518C2.14484 56.1004 2.0309 56.1243 1.91606 56.1214Z" fill="white"/>
<path d="M23.5837 12.3883H14.5586C14.3624 12.3883 14.1743 12.3105 14.0355 12.1721C13.8968 12.0337 13.8188 11.846 13.8188 11.6502C13.8188 11.4545 13.8968 11.2667 14.0355 11.1283C14.1743 10.9899 14.3624 10.9121 14.5586 10.9121H23.5837C23.7799 10.9121 23.9681 10.9899 24.1068 11.1283C24.2456 11.2667 24.3235 11.4545 24.3235 11.6502C24.3235 11.846 24.2456 12.0337 24.1068 12.1721C23.9681 12.3105 23.7799 12.3883 23.5837 12.3883Z" fill="white"/>
<path d="M24.1976 43.3297H13.9667C13.7705 43.3297 13.5823 43.252 13.4436 43.1136C13.3049 42.9751 13.2269 42.7874 13.2269 42.5916C13.2269 42.3959 13.3049 42.2081 13.4436 42.0697C13.5823 41.9313 13.7705 41.8535 13.9667 41.8535H24.2198C24.416 41.8535 24.6042 41.9313 24.7429 42.0697C24.8817 42.2081 24.9596 42.3959 24.9596 42.5916C24.9596 42.7874 24.8817 42.9751 24.7429 43.1136C24.6042 43.252 24.416 43.3297 24.2198 43.3297H24.1976Z" fill="white"/>
<path d="M19.0711 8.49886C18.8749 8.49886 18.6867 8.42109 18.548 8.28267C18.4092 8.14425 18.3313 7.95652 18.3313 7.76076V3.7381C18.3313 3.54234 18.4092 3.35462 18.548 3.2162C18.6867 3.07777 18.8749 3 19.0711 3C19.2673 3 19.4554 3.07777 19.5942 3.2162C19.7329 3.35462 19.8108 3.54234 19.8108 3.7381V7.76076C19.8108 7.95652 19.7329 8.14425 19.5942 8.28267C19.4554 8.42109 19.2673 8.49886 19.0711 8.49886Z" fill="white"/>
<path d="M37.2693 40.9527C37.1151 40.9517 36.9651 40.9026 36.8402 40.8124C36.7142 40.7218 36.6199 40.594 36.5707 40.4469C36.5216 40.2998 36.5201 40.1411 36.5665 39.9931L37.9277 35.8229L34.3694 33.2469C34.2432 33.1549 34.1494 33.0253 34.1015 32.8768C34.0537 32.7282 34.0542 32.5684 34.1031 32.4202C34.1515 32.2722 34.2455 32.1433 34.3717 32.0518C34.4979 31.9603 34.6499 31.911 34.8059 31.9109H39.2001L40.5982 27.7406C40.6484 27.5865 40.748 27.4531 40.8817 27.3611C41.0154 27.269 41.1757 27.2234 41.338 27.2314C41.494 27.2315 41.646 27.2808 41.7722 27.3723C41.8984 27.4637 41.9924 27.5927 42.0408 27.7406L43.3945 31.9109H47.7887C47.9453 31.9104 48.098 31.9594 48.2248 32.0509C48.3517 32.1424 48.4462 32.2718 48.4947 32.4203C48.5432 32.5688 48.5433 32.7288 48.4949 32.8773C48.4464 33.0259 48.352 33.1553 48.2252 33.2469L44.6669 35.8229L46.0281 39.9931C46.0747 40.1411 46.0734 40.3 46.0243 40.4472C45.9753 40.5944 45.881 40.7224 45.7549 40.8131C45.6288 40.9038 45.4772 40.9525 45.3218 40.9524C45.1663 40.9523 45.0148 40.9033 44.8889 40.8124L41.264 38.2217L37.7057 40.7977C37.5806 40.8946 37.4277 40.949 37.2693 40.9527ZM41.264 36.5905C41.4182 36.5915 41.5682 36.6405 41.6931 36.7307L43.8458 38.2881L43.0247 35.7638C42.9775 35.6166 42.9778 35.4584 43.0256 35.3114C43.0734 35.1644 43.1662 35.0361 43.291 34.9445L45.4363 33.3871H42.8175C42.6553 33.3951 42.4949 33.3495 42.3612 33.2574C42.2275 33.1654 42.1279 33.032 42.0778 32.8778L41.264 30.3609L40.4429 32.8778C40.3945 33.0258 40.3005 33.1547 40.1743 33.2462C40.0481 33.3377 39.8961 33.387 39.7401 33.3871H37.0843L39.2297 34.9445C39.3557 35.0351 39.45 35.163 39.4991 35.3101C39.5483 35.4571 39.5498 35.6159 39.5034 35.7638L38.6822 38.2881L40.8276 36.7307C40.9545 36.639 41.1073 36.5899 41.264 36.5905V36.5905Z" fill="white"/>
</svg>
